<?xml version="1.0" encoding="UTF-8"?>
<svg version="1.1" viewBox="0 0 2048 954" width="322" height="150" xmlns="http://www.w3.org/2000/svg">
<path transform="translate(0)" d="m0 0h2048v954h-2048z" fill="#F2DEE5"/>
<path transform="translate(1347,158)" d="m0 0h24l9 3 10 5 11 9 15 16 10 14 11 17 8 15 6 19 1 5v10l-4 19-4 10-7 12-11 14-13 13-17 12-11 8-3 3v14l4 10 3 5 2 17 1 16 1 40 3 17 6 15 6 8 6 2 16-1 32-4 7-1 16 5 17 9 15 9 17 7 16 4h13l15-4 12-6 10-9 8-11 4-10 2-13-1-18-3-12-6-11-5-4-27-8-20-8-19-10-14-11-11-12-10-15-4-10-1-4-1-16 3-13 6-11 14-14 6-3 14-2h17l41-2h16l18 1 6 1v2l4 2 3 1v2l5 2 16 8 20 8 29 9 14 4 4 3 4 1v2l6 2 18 10 8 9 3 2 6 11 2 6h2l5 14 4 16 3 21v15l-5 17-6 12-12 13-10 10-16 12-9 8-5 14-2 19-2 23-2 10-10 30-8 18-3 5h-2l-1 4-10 14-11 12-12 10-10 6-10 5-4 1h-18l-18-4-25-7-21-7-13-4-19-5-17-4h-19l-13 2-18 5-18 7-19 10-23 12-23 11-11 5-24 8-7 1-11-3-9-7-11-12-12-17-11-15-3-6v-2h-2l-4-9-5-10-3-15-2-19-2-68-3-15-8-19-5-14-6-20-3-16-1-10v-22l3-9 12-22 8-11 3-6v-8l-16-3-11-4-7-6-3-7-6-25-1-8v-11l2-14 6-20 8-18 6-11 9-13 12-14 11-12 9-9 16-12 18-10 15-7 14-4z" fill="#DD66AE"/>
<path transform="translate(638)" d="m0 0h154l-6 12-10 19-14 26-12 19-15 24-6 7-5 5h-2l-2 4-4 2v6l17 12 2 1v2l4 2 8 7 13 17 8 13 6 13 4 14 3 15 4 24 1 12v40l-4 17-9 13-19 19-14 10-12 5-14 1-18-6-6-4-13-11-5-5-7-14-14-15-14-8-13-5-12 2-17 4-17 6-11 6-11 10-9 12-8 16-6 18-1 16 2 14 5 13 6 11 11 13 8 7 14 8 8 3 13 2h26l5-1v-4l11-1h33l19 3 31 6 31 5h7l8-16 5-15 3-12 1-38 5-21 5-8 12-13 9-6 2-1 2-5 6-4 19-5 7-1h20l15 2 1 1 9 1 12 5 9 6 10 9 8 9 3 3 8 14 5 14 4 21 2 17v30l-3 19-6 28-4 14-7 14-5 8h-2l-2 5-4 2-2 4-3 1v2l-5 3-3 3h-2l-1 3-12 7-5 2-24 3-16 5-15 6-7 3-18 6-24 4h-25l-16-4-16-8-3-2v-2l-5-2-12-13-4-6-10-13-9-7-4-1-4 2-10 2-9 4-18 5-12 3-27 3-3 1h-38l-19-3-20-8-21-9-12-7-3-1v-2l-4-1-11-7v-2l-5-2-9-8-6-8v-2h-2v-3h-2l-6-11-4-7-3-8-8-16-8-13-3-15-2-19v-48l1-44 1-27 3-31 3-14 6-12 7-9 10-8 14-8 20-8 27-8 8-5 7-7 18-27 14-25 13-22 8-10 9-9 9-6 11-6 14-6 9-1 11 5v2h3v2l5 2 21 14 14 10 17 12 12 8 2-4-5-4-9-11-3-5-4-4-3-4-2-5-3-3v-2h-2l-4-7-7-11-6-11-9-17-3-7-4-12-2-2z" fill="#DE66AE"/>
<path transform="translate(1027,550)" d="m0 0 18 1 13 4 13 3 22 11 14 10 11 9 17 17 15 20 7 9 11 8 17 9 13 3 19 2 15 2 11 4 13 8 5 5 8 7 6 8 10 16 4 7 1 4h2l11 23 11 21 9 12 10 7 12 5h10l10-4 9-6 4-2 2-4 5-6 8-16 11-24 7-10 6-7 15-10 23-11 12-3 10 1 11 8 20 20 11 15 11 18 14 26 5 7 2 1h7l21-6 19-7 14-5 25-4 11-1h21l19 7 12 7 11 8 7 8 1 3v20l-3 25-7 30-3 20v27l4 20 7 21v3h-401l-8-11-7-6-4-4-3-5-3-3-3-15-1-12-3-7-11-8-11-6-30-20-19-14-13-12-18-18-12-18-14-19-8-9-8-7-7-7v-2l-4-2-5-4-6-2-8-1-32-1-26-2-24-4-17-5-18-8-24-13-12-9-7-7-5-16-8-32-2-14v-24l3-14 5-12 7-10 7-7 4-3 7-2 10-5 12-2 12-1z" fill="#DD66AE"/>
<path transform="translate(220,109)" d="m0 0 6 1 3 2 11-1 4-1 12 5 10 5 1 3 5 2h17l16-2h20l24 3 8 4 4 8 3 14 1 9v16l-2 27v24l3 25 5 31 1 9v19l-7 9-8 4-11 11-9 15-8 15-15 40-5 12-8 16-9 12-9 9-4 1v2l-11 7h-2v2h-3v2h-3v2l-6 2v2l-12 6-7 4-13 3-13 4-12 1h-19l-61 3-7 1v3l4-1 3 3-1 2-47 6-21 3-12 1h-36v-169l11-12 12-11 8-7 6-7 3-11 3-22 5-19 8-20 9-17 7-10 8-9h2l2-4 5-2v-2l5-2 10-3-5 1-4 1 3-3 9-3 21-2 17-3 5-5 11-23 8-18 8-9 6-4 9-3 4-2 15-3z" fill="#DD66AE"/>
<path transform="translate(1803,527)" d="m0 0 11 1 17 5 11 8 14 12 7 7 3 1 5 10h3l1 4 2 1v3h2l10 20 13 40 4 9 3 8 6 8 8 1 3-3 6-2 12 1 6 3 11 8 17 13 10 6 17 8 11 7 8 8 11 15 7 14 5 18 1 1v192h-296l-2-21-1-31 1-22 3-14 12-29 6-18 1-7v-10l-4-10-6-9-8-19-8-21-5-26-3-18v-98l2-15 5-14 7-14 8-10 11-9 8-5 15-5z" fill="#DD66AE"/>
<path transform="translate(38,539)" d="m0 0 9 1 5 4 7 8 14 15 6 8 2 5v24l-2 14-4 17-6 37-4 13 1 10 2 10 4 7 7 8 8 7 16 8 20 6 21 5h31l14 1h13l18 11 13 10 12 11 8 9 13 18 6 11 9 12 7 7 6 3h32l19-1h43l8 4 24 24 13 17 8 12 2 8v11l-3 15-4 13-5 12h-431v-404l7-6 16-4h13z" fill="#DD66AE"/>
<path transform="translate(886)" d="m0 0h587l-4 4-8 5-5 6-5 9 1 9 7 20 4 9 12 25 13 27 4 10 4 8 10 26 11 29 10 26 9 28 4 17 1 7v8l-4-1-8-4-10-8-10-9-8-7-32-30-10-9-20-20-8-7-11-12-11-13-7-8-14-11-15-10-16-10-14-11-11-10-4-1-2 6-11 15-10 13-14 18-14 19-9 11-11 13-8 10-10 13-14 19-13 16-9 11-9 9-7 8-12 12-7 8-10 11-7 8-13 17-16 26-7 10-6 1-7-3-6-5-2-10-1-2 1-34 4-37 3-47 6-26 4-18 3-29 3-64v-14l-16-6-40-11-21-6-25-7-18-6-47-14-12-5-16-6-12-5-20-8z" fill="#DE66AE"/>
<path transform="translate(1555)" d="m0 0h330l4 9 15 25 10 17 11 19 6 10 15 24 12 17 5 7v2h2l6 11 4 15 2 12 1 5 2 8-2 1v27l-2 10-4 11-2 3h-3l-3 9-8 5-1 2h-2v2l-6 4h-2v2h-2l-1 4-5 3-19 6-1 1-14 1h-14l-17-4-20-8-7-5v-2l-4-1-11-10-8-14-9-28-6-22-9-26-7-14-7-7-10-6-15-6-8-2h-11l-17 7-9 6-7 7-4 8-1 6v17l2 12 5 14 2 13v11l-3 13-8 11-9 8-13 4-8 2h-17l-16-4-10-5-10-7-10-9-9-10-12-16-18-27-9-16-9-20-10-24-4-14-2-13v-54l3-14 6-11z" fill="#DE66AE"/>
<path transform="translate(366,483)" d="m0 0h9l13 6 13 9 14 14 9 14 10 28 3 10 6 10 8 7 16 8 23 12 11 8 10 12 7 12 4 15 2 15v17l-2 19-4 16-7 16-6 11-10 14-11 12-17 10-19 9-11 5-20 7-5 2-28 2-13-1-9-3-10-8-16-16-8-10-11-15-9-9-7-8-7-6-17-13-16-11-19-12-23-12-21-8-21-6-10-2-17-5-12-5-14-8-15-15-7-12-5-15-2-13v-16l7-19 9-17 9-13 8-7 13-5 32-3 81-1 11-1 32-1 13-4 17-7 15-7 13-4z" fill="#DE66AE"/>
<path transform="translate(914,695)" d="m0 0h16v2l9 3 2 1v2l7 2-1 4 8 10 10 15 11 21 11 26 6 9 7 8 12 9 14 8 19 8 24 7 47 12 26 8 33 12 20 8 16 8 23 12 5 5 5 7 4 20v32h-371l-1-3-2-63-1-22-3-19-10-25-7-19-2-13 1-10 8-27 6-16 8-13 9-10 11-9 12-7z" fill="#DD66AE"/>
<path transform="translate(2046,328)" d="m0 0h2v281l-6 10-12 25-5 9-5 7-6 1-8-4-10-9-12-11-8-8-7-8-20-18-5-5-10-9-20-20v-2l-4-2-8-10-8-7-7-8-10-12-8-10-11-15-9-16-7-17-8-26-3-15-1-8v-18l4-19 6-16 6-10 10-10 8-2 8-1h8l2-1h14l12 2 11 7v2l5 2 17 17 12 17 2 4h2l2 5 7 11 1 3h5l6-8 12-19 13-16 7-8 17-17 8-7 8-8z" fill="#DD66AE"/>
<path transform="translate(816,19)" d="m0 0 17 1 32 4 65 12 25 7 17 6 10 5 6 5 10 16 4 10-1 9-5 14-5 11-3 11v20l4 24 2 11 1 19-6 16-7 11-9 11-9 9-12 5-9 1-13-4-3-3-2-5-10-7-8-1-10 3-10 5-10 2h-27l-9-3-7-7-12-18-12-20-16-27-11-17-12-22-4-11-3-7-1-8 2-15 5-13 8-17 10-16 10-14 10-10z" fill="#DD66AE"/>
<path transform="translate(626,587)" d="m0 0h13l14 5 25 12 24 14 15 9 13 9 12 7 7 1 20-6 24-9 11-1 13 4 16 8 11 7 6 7 4 7 1 4v10l-4 17-7 23-8 32-4 25-6 18-12 25-9 10-7 5-16 1-16-11-11-9-14-12-10-10-8-7-12-9-14-8-15-4-25-5-18-6-14-7-10-9-8-11-8-18-4-13-1-8v-32l4-20 7-19 6-11 5-7h2l2-4z" fill="#DD66AD"/>
<path transform="translate(1010,270)" d="m0 0h18l9 6 8 8 3 6 3 2 4 8v2h2l3 7 3 9 3 8 6 15 8 16 4 6v2h2l8 13 10 11 4 5 3 2 5-1 8-7 8-10 10-7 12-5 3-1h16l12 2 10 6 8 9 4 12 1 6-1 16-7 27-6 28-4 16-3 18-6 14-14 14-7 4-15 2-23-1-15-4-2-1-10-1-18-4-10-4-19-10-10-6v-2l-4-2-7-7-8-14-7-16-6-13-6-10-10-15-10-21-6-17-5-21-1-10v-12l2-18 4-20 5-15 6-9 10-10 6-4z" fill="#DE66AE"/>
<path transform="translate(1452,268)" d="m0 0 8 6 13 9 17 8 29 10-17 17-7 14-2 13 1 13 4 12 9 14 12 14 14 11 21 11 21 8 24 7 7 6 6 13 2 9 1 18-2 13-4 10-8 11-8 8-12 7-13 4-5 1h-13l-22-6-16-8-21-12-11-5-11-3-7 1-40 5h-8l-6-2-5-6-6-12-4-15-1-8-1-40-2-26-2-10-3-4-3-8v-14l10-9 15-10 10-8 11-11 11-15 8-15 4-17z" fill="#FEE96E"/>
<path transform="translate(247)" d="m0 0h369l-6 7-11 12-11 11-7 8-13 15-9 11-11 11-7 8-9 9-7 8-7 7-7 8-8 7-13 12-17 13-17 12-10 5-5-1v2l-5-1-9-6-7-8v-2h-2l-3-5v-2l-4-2-11-11-11-8-10-8-8-6-9-6-16-11-8-4-11-9-8-7-5-3v-2l-4-2-7-6-5-5-9-8-7-8-10-10-1-3-6-4-4-4-2-6h-5l-7-6z" fill="#DE66AE"/>
<path transform="translate(621,292)" d="m0 0 9 2 16 8 8 6 7 7 6 8 4 8 4 6 11 10 8 6 16 6 10 1 10-2 12-5 14-11 17-17 8-12 2-7h1v17l5 1 5 6h9l9-4 5-1-3 3-2 5-8 5-10 9-7 9-4 11-3 14-1 38-5 19-8 19-4 6-14-1-46-8-20-4-8-1h-44l1 4-6 2h-26l-17-3-15-8-10-8-11-12-8-14-5-13-2-14 1-16 6-18 8-16 7-9 8-9 11-8 11-5 15-5z" fill="#D6A3C1"/>
<path transform="translate(52,544)" d="m0 0 7 6 9 8 8 10 1 3 5 2 7 10 4-7 2-1 2 21 2 10 6 16 7 10 12 12 16 9 16 6 14 4 15 3 27 9 25 12 21 13 19 13 14 11 9 7 8 8 14 16 10 14 14 15 9 9 11 7 11 2 34-1-7 25-6 18-10-5h-43l-19 1h-32l-8-5-8-8-10-15-7-12-14-18-10-10-17-13-18-11h-13l-21-1h-24l-32-8-16-6-12-7-12-12-3-6-3-7-2-16 4-13 6-37 5-21 1-10v-24l-4-8-12-13-7-8-5-5z" fill="#D6A3C1"/>
<path transform="translate(548,745)" d="m0 0h8l-3 2-25 6-1 2 13-2 9-3 14-3 11-1 16 9 13 11 7 11 5 12 4 18 2 20-10 14-8 10-9 11-6 10-5 16-2 13-3 48-1 5h-107l-2-10-2-5-3-24-5-26-4-16-2-10v-10l3-25 6-15 9-17 14-19 9-8 4-1-1-3 14-9 19-7z" fill="#DD66AE"/>
<path transform="translate(949,689)" d="m0 0 2 4 3 3v2l4 2 14 10 29 15 19 7 24 5 18 2 16 1 32 1 11 2 7 4 5 4 7 8 10 9 7 8 14 19 13 19 24 24 17 13 17 12 22 14 13 8 9 7 2 6 2 18 2 11 3 1 4 7 8 6 5 6 4 5v2h-68l-1-32-4-20-5-7v-2l-4-2-29-15-14-7-38-14-30-10-72-19-14-5-16-8-15-9-11-10-8-11-11-25-9-19-10-16-11-14 2-1v-3l-5-1-2-2h3l5 2 5 1-4-10-1-1z" fill="#D6A4C1"/>
<path transform="translate(685,817)" d="m0 0h16l17 3 17 7 13 8 10 8 7 6 10 13 10 18 8 21 5 17 6 27 1 9h-206v-8l6-26 8-25 8-21 10-21 9-13 10-10 14-8 14-4z" fill="#DD66AD"/>
<path transform="translate(0)" d="m0 0h204l1 4 1 20-5 12-8 10-8 5-12 9-5 3-1 3-14 7-9 3-10 4-13 5-11 5-9 3-10 4-11 5-16 6-5 3-8 3-16 8-9 5-4 1v2h-3v2h-3v2h-3v2l-7 4-5 4h-1z" fill="#DE66AE"/>
<path transform="translate(1740,116)" d="m0 0h11l16 5 14 7 10 9 6 10 10 28 6 20 4 15 7 20 7 12 7 7 1 4-4 9-14 8-19 6-18 2h-7l-27-9-24-5-8-6-8-9-7-5-2-5 6-8 3-13v-11l-3-16-5-15-1-8v-17l2-9 6-8 7-7 16-8z" fill="#A2CBD7"/>
<path transform="translate(603,715)" d="m0 0 3 4 6 10 9 10 9 6 20 8 20 5 21 4 12 5 15 10 20 18 7 7 11 9 14 11 13 9 3 2-7 4-10 3-5-1 6 11 8 11 7 15v2h-2l-9-16-8-10-5-6-17-13-16-8-10-4-17-3h-16l-15 3-10 4-11 7-9 9-9 14-10 21-9 24-8 28-4 18-1 8h-22l2-41 2-18 3-15 4-10 8-12 9-10 13-18 2-4-3-25-5-18-7-13-5-6-10-8-16-9-4-1-2-4 7-4 17-16 9-6z" fill="#F2DEE5"/>
<path transform="translate(258,229)" d="m0 0 4 1-1 10-7 20-8 20-6 22-6 9-10 8-20 14-14 10-18 13-16 13-14 11-11 10-17 13-13 6-4 1h-13l-6-3-1-1v-10l7-10 10-13 10-11 9-12 14-18 9-15 3-9 5-23 5-14 3-6 6-5 9-4 15-3 23-3 13-4 25-13z" fill="#A2CAD6"/>
<path transform="translate(1155)" d="m0 0h215l1 1v12l-4-1-1-8 1-3h-3l2 10 4 8 4 5v20l-4-1-5-5-9-8-8-7-10-10-6-7-7-4-13 1-6 4-9 12-8 11-12 15-10 14-11 13-12 16-14 20-10 13-14 19-10 13-11 12-9 6-5-1-1-1v-12l9-56 7-42 5-31 1-10v-9l-5-2-32-6z" fill="#A2CAD6"/>
<path transform="translate(1736,700)" d="m0 0h3l7 39 5 15 8 20 8 16 3 3 3 9v10l-3 14-8 21-8 19-3 14-1 31 2 35v8h-35l-8-24-4-20v-27l4-25 6-25 3-25v-20l-3-6-9-8-16-10-15-6-8-3 1-4 20-18 14-11 14-9z" fill="#A2CBD7"/>
<path transform="translate(1086,90)" d="m0 0 7 1 5 7v3h2l3 13v15l-4 27-4 16-6 19-3 12-3 9-4 10-6 11-4 5-7-1-15-14-9-10-16-23-9-16-6-12-3-15-1-17 1-11h2l2-6 3-5 2-1h10l9 4 7 5v2l9 2 8-10 5-4 1-3 7-4 1-2 9-4z" fill="#DE66AE"/>
<path transform="translate(362,478)" d="m0 0 16 4 2 1v2l-5-1h-9l-18 4-15 6-15 7-16 6-5 1-32 1-11 1-81 1-32 3-13 5-8 7-9 14-9 17-6 17-5 6-2 4-3-4-4-5v-2l-5-2-11-14-12-11-7-5-9-1-2 1h-13l-16 4-7 5v-36l36-1 27-3 43-6 10-1-2-4-4 1-1-3 1-1 7-1 61-3h22l13-2 17-5 7-1v2l-8 3h-3v2l-24 7-2 1 35 2h29l16-1 8-2 8-3 9-2 7-3 20-6 15-4z" fill="#F2DDE5"/>
<path transform="translate(1328,92)" d="m0 0 5 1 12 11 15 11 21 13 12 9 11 9 3 5-3 11-3 7-3 4-11-8-11-5-5-1h-24l-15 3-15 6-21 11-16 12-10 9-9 9-9 11-10 12-9 15-7 15-7 19-5 21h-1l-3-24-3-3-3-5h-7l-7 2-4 4-2-1 8-8 7-8 11-12 11-14 21-28 8-10 9-11 11-13 12-16 16-21 13-17 12-16z" fill="#F2DEE5"/>
<path transform="translate(2047,408)" d="m0 0h1v87l-10 18-17 28-13 24-2 2-10-9-15-13-9-7-10-9-8-7-10-9-19-19-11-14-12-18-7-14-2-6v-6l2-2 9 1 12 12 7 9 13 16 11 12 15 14 11 8 4 1 9-6 7-8 12-18 13-20 11-18 12-20z" fill="#FEE96E"/>
<path transform="translate(2047,840)" d="m0 0h1v114h-105l-4-18-2-16v-9l2-9 5-3h26l20 2 8-3 16-8 9-8 10-15 8-16z" fill="#F2DDE5"/>
<path transform="translate(490,761)" d="m0 0 4 4 3 1v2l-6 4-7 6-13 18-10 19-5 13-3 25v10l5 24 3 12 5 30 1 10 3 8v7h-39l3-11 3-7 4-15 1-7v-11l-3-10-10-14-13-16-18-18 1-7 8-25 3-11 5-3 18-7 11-4 15-7 19-10 9-7z" fill="#F2DDE5"/>
<path transform="translate(603,715)" d="m0 0 3 4 6 10 9 10 9 6 20 8 20 5 21 4 12 5 15 10 10 9 3 5v2l-48 5-24 5-13 5-12 7-11 9-1 2h-2l-3-25-5-18-7-13-5-6-10-8-16-9-4-1-2-4 7-4 17-16 9-6z" fill="#FEE96E"/>
<path transform="translate(349)" d="m0 0h167l-6 9-11 14-9 11-9 10-9 9-13 10-4 2-7-1-19-10-21-13-25-17-19-12-12-8z" fill="#D6A4C1"/>
<path transform="translate(1913)" d="m0 0h135v4l-3 3-9 13-4 8-15 25-4 6h-2l-1 4-4 9-3 2-3-4-7-2-8-5-5-4-14-14-11-9-5-5-1-3-4-2-11-9-8-6-3-3-5-3v-2l-4-1z" fill="#DE66AE"/>
<path transform="translate(1479,899)" d="m0 0h7l13 4 8 7 4 5 4 16 3 21v2h-122l4-4 13-9 18-14 15-12 13-9 11-6z" fill="#F2DEE5"/>
<path transform="translate(669)" d="m0 0h95l-2 5-15 25-14 24-13 22-4 6-1-2-4-1-10-19-12-19-12-21-8-17z" fill="#D6A3C1"/>
<path transform="translate(53,224)" d="m0 0h3l-1 6-1 2-1 10-5 13-5 25-2 17-3 11-9 10-11 10-8 7-9 10h-1v-74l35-35 8-7 5-3z" fill="#F2DEE5"/>
<path transform="translate(1267,880)" d="m0 0 6 2 12 9 3 7 2 18 2 11 3 1 4 7 8 6 5 6 4 5v2h-68l-1-32-3-15v-8h8l3-5 1-8z" fill="#F2DEE5"/>
<path transform="translate(1076,120)" d="m0 0 6 2 3 4-1 12-5 23-6 21-11 30-3-1-13-17-10-13-12-20-4-11-1-10 2-7 3-2 7 1 6 4 8 8 3 2 6-1 7-11 7-8z" fill="#FEE96E"/>
<path transform="translate(1885)" d="m0 0h5l7 12 6 8 6 9 9 13 2 4h2l6 11 7 8 12 20 13 20 4 7 4 4 7 13 9 14 5 11 4 13 1 9v21l-3 14-4 10-2 3h-2l-2 5-6 8-6 7-7 4-5 5-14 8-1-2 1-2h2v-2l6-4h2v-2h2l1-3 7-4 4-9h3l3-10 3-7 1-12v-24l3 1-3-9-2-11-4-16-3-8-3-5v-2h-2l-6-9-12-17-3-4-4-7-8-13-10-17-8-14-18-30-7-12z" fill="#F5CBDB"/>
<path transform="translate(0,910)" d="m0 0 5 2v3l6 1 6 5 10 1h5l2-2 10-1 5 1 7-1 14 4 2 1v2h2v2l4 1 4 3v3l4 2 4 4 6 11v2h-96z" fill="#F2DEE5"/>
<path transform="translate(634,834)" d="m0 0h2l-1 7-7 16-1 6-8 18-6 16-9 31-4 18-1 8h-22l2-41 2-18 5-2 1-5 12-18 7-11 12-14 11-7z" fill="#F2DEE5"/>
<path transform="translate(1280,158)" d="m0 0h2l2 4v4l5 2 1 7h7l1 3-13 9-11 9-13 13-9 11-10 12-9 15-7 15-7 19-5 21h-1l-3-24-3-3-3-5h-7l-7 2-4 4-2-1 8-8 7-8 11-12 11-14 21-28 8-10 9-11 11-13z" fill="#FBF3F4"/>
<path transform="translate(36,195)" d="m0 0h17l8 4v5l-2 3 2 1-9 10-7 8-9 9-7 8-24 24-3 4h-2v-72l23-3z" fill="#DE66AE"/>
<path transform="translate(362,478)" d="m0 0 16 4 2 1v2l-5-1h-9l-18 4-15 6-15 7-16 6-5 1-32 1-11 1h-57v-1l22-1-3-1-14-1-3-1-16-1-66-1-3-2v-2l-4 1-1-3 1-1 7-1 61-3h22l13-2 17-5 7-1v2l-8 3h-3v2l-24 7-2 1 35 2h29l16-1 8-2 8-3 9-2 7-3 20-6 15-4z" fill="#F3B4D2"/>
<path transform="translate(1406,151)" d="m0 0 4 2 9 10 7 8 11 12 8 7 21 21 8 7 15 14 6 7-5-2-5-5-5-4v-2h-2l-5-5-2-1v-2l-6-2-4-1-2 4-11 1-7-2 4 14-1 4-11-19-15-22-11-12-7-8-1-5 3-5 2-5z" fill="#FBF3F4"/>
<path transform="translate(55,515)" d="m0 0 5 1 2 9 6 10 1 3 4 1 3 4 3 8 2 17 4 5v2h5l2-4 5-6 1 3-3 7-4 6-3 3-5-8-1-3-5-2-11-14-12-11-7-5-9-1-2 1h-13l-16 4-4 2 3-5h2l2-5 1-11 9-5 1-2 4-2 16-1z" fill="#F6CCDC"/>
<path transform="translate(650,805)" d="m0 0h6l1 3-5 5-4 9-1 4 11-2v2l-10 7-8 8-9 14-2 4h-2l3-9 5-12 1-4-13 9-7 5-9 11-8 13-10 14-3 7-4 3v-8l5-16 9-14 9-10 13-18 6-8 13-10z" fill="#FBF2F4"/>
<path transform="translate(1887,5)" d="m0 0 4 4 7 11 6 10v3h2l9 12 5 9 6 10 10 16 7 14v2l4 2 6 10 4 5v2l3 1 1 4h2l10 14 7 12 4 18 1 12-1 8v21l-2 12-3 8-3 7-8 11-6 5-5 5-14 8-1-2 1-2h2v-2l6-4h2v-2h2l1-3 7-4 4-9h3l3-10 3-7 1-12v-24l3 1-3-9-2-11-4-16-3-8-3-5v-2h-2l-6-9-12-17-3-4-4-7-8-13-10-17-8-14-18-30-7-12z" fill="#E995C2"/>
<path transform="translate(683,913)" d="m0 0 7 2 4 6 4 16 2 17h-37l-1-13 2-11 3-9 6-5z" fill="#A2CBD7"/>
<path transform="translate(228,103)" d="m0 0h13l17 5 12 6 6 2 11 1 11-2 12-1h18l11 3 8 7 2 2h-8l-16-2h-20l-16 2h-17l-6-3-2-3-17-8-4-1-8 1-7 1-4-2-4-1-9 2-15 3-8 4-3-1 3-2h3v-2l16-6h4v-2l7-2z" fill="#F5CBDB"/>
<path transform="translate(745,804)" d="m0 0 4 1 13 11 18 13 6 3-4 4-11 4-7-1 6 11 8 11 7 15v2h-2l-9-16-8-10-5-6-17-13-16-8-10-4-5-1v-2h8l11 4 12 6h4l-9-15-1-5 7-2z" fill="#FBF2F4"/>
<path transform="translate(792)" d="m0 0h3l-1 7-2 10v15l4-1h2l-2 5-14 21-1 2h-3l-5 5-3 4h-2l-2 5-7 1-5-1-2 1 1-4 11-19 15-28 10-19z" fill="#FBF3F4"/>
<path transform="translate(990,119)" d="m0 0h4l1 2 2 12 3 8 2 7h2l2 5 2 9 8 16 4 7-1 3-4-2-16 1-3 7-2-3-6-33-1-8v-20z" fill="#FBF2F4"/>
<path transform="translate(1085,125)" d="m0 0 3 3v8l-1 5v13h4l5-5 3-1v8l-4 16-6 19-3 12-2 1-1-3-3 3-1-1 1-12-1 2-3-1 1-11-2 3-4 19-6 12-4 2-7-9 3-1 5 5 1-6 10-27 8-30z" fill="#D455A2"/>
<path transform="translate(1313)" d="m0 0h57l1 1v12l-4-1-1-8 1-3h-3l2 10 4 8 4 5v20l-4-1-5-5-9-8-8-7-10-10-6-7-7-4h-9z" fill="#A2CBD7"/>
<path transform="translate(687)" d="m0 0h55l-6 7-8 8-8 10-8 11-1 2h-2l-7-14-4-4-7-12z" fill="#DD67AE"/>
<path transform="translate(2047,901)" d="m0 0h1v53h-37l7-12 7-9 6-10 6-7z" fill="#DE66AE"/>
<path transform="translate(1275,194)" d="m0 0h2l-2 4-9 9-6 10-6 7h-2l-2 4-3 1v2h-2l-2 5-2 4h-2l-3 10-4 8-4 11-1 9 1 1v25l-2 24h-2l-1 2h-4l1 6h-2l-3-14-1-8v-11l2-14 6-20 8-18 6-11 9-13 12-14 11-12z" fill="#D457A3"/>
<path transform="translate(1112,168)" d="m0 0h1v9l-3 16-5 22-3 13-3 49-4 35-1 34 1 4 2 9-4-2-3-13-1-8-1-33 2-38 3-18 5-16 8-42 5-16z" fill="#EC93C3"/>
<path transform="translate(235,484)" d="m0 0h2v2l-8 3h-3v2l-10 3-12 2-20 5-6 1-24 1h-37l-3-2v-2l-4 1-1-3 1-1 7-1 61-3h22l13-2 17-5z" fill="#EC93C3"/>
<path transform="translate(1909,36)" d="m0 0 3 1 14 21 4 8 7 10 4 8 9 13 3 6 6 7 10 15 7 10 8 15 4 14 2 16 1 18-3 14-6 16-7 9-6 7-2-1 5-6 4-7 4-10 3-16v-21l1-11-3-19-4-11-6-9-8-11v-2h-2l-2-4-5-5-7-11-6-7-8-16-10-16-5-9-9-14z" fill="#F4B6D3"/>
<path transform="translate(624,61)" d="m0 0 7 1 16 5 14 7 10 8v2l7 1 2-1-2-8 4 3 2 5 3 4v2l3 1 4 6 9 11 4 2-1 6-5-2-19-13-14-10-17-12-11-7-5-3v-2h-3v-2l-5-1z" fill="#F5C9DA"/>
<path transform="translate(32,521)" d="m0 0h8l3 4 6 12 8 7 4 5 5 3 7 9 4 6h-3l-10-12-8-7-9-7-9-1-2 1h-13l-16 4-4 2 3-5h2l2-5 1-8 4-4 6-2z" fill="#F3B4D2"/>
<path transform="translate(1921,7)" d="m0 0 5 2v2l4 2 11 9 8 6 10 10 16 15 3 3v2l5 2 6 5 5 3 7 2 3 3 3-5 4-9h2l2-5 10-16 8-13 4-8 5-7 1 2-4 9-7 12h-2l-3 9-11 20-8 11-6 8-11-6-5-5-11-9-8-8-8-7-22-22v-2h-2v-2l-4-2-6-5z" fill="#EC94C3"/>
<path transform="translate(853,316)" d="m0 0h14l18 2 16 3 3 1v2l3 1-1 1 14 8 5 4v-2l4 2 7 7 4 6 5 5 2 4 1 15 2 7v11l2 13 2 15v22l1 19-2 9-5 6h-1l1-9 3-19v-30l-4-29-4-15-5-12-6-10v-2l-4-2-11-12-9-7-14-7-6-2h-7v-2h-8l-20-2z" fill="#F3BCD5"/>
<path transform="translate(2023,882)" d="m0 0v3l-7 7h-3v3l-11 6-6 4-4 1h-7l-12-4-15-1-6 1v2h-3l-2 4v13l2 17 2 16h-8l-4-18-2-16v-9l2-9 5-3h26l20 2 8-3 16-8z" fill="#F4B6D3"/>
<path transform="translate(362,478)" d="m0 0 16 4 2 1v2l-5-1h-9l-18 4-20 8-13 2v2l-7 3h-22l-22-1v-1l16-1 8-2 8-3 9-2 7-3 20-6 15-4z" fill="#F5CADB"/>
<path transform="translate(1607,442)" d="m0 0 2 1 1 3 5 5 6 12 1 9v17l-2 15-2 1-2 6-4 5-7 3-9 3-8 6-11 5-9 1 4-2 13-5 10-7 7-7 8-13 3-10 1-14-2-18-4-11z" fill="#D454A2"/>
<path transform="translate(99,183)" d="m0 0 4 1-3 2-1 1 2-1h6l-3 2-10 3-5 1v2l-6 4-7 8-6 7-9 15-8 18-5 13-1-4 5-13 1-10 3-8-12 5-7 7-2-1 15-15 7-8 3-4v-4-5l-3-2 5 1 1 2-1 4 14-8 13-8 7-3h3z" fill="#F1AECF"/>
<path transform="translate(5,915)" d="m0 0 6 1 6 5 10 1h5l2-2 10-1 5 1 7-1 14 4 2 1v2h2v2l4 1 4 3v3l4 2 4 4 6 11v2h-10l-2-9-6-5v-2h-2v-2l-4-1-7-5-9-2-10-2h-12l-12 3-8-6-7-5v-2z" fill="#F3B5D2"/>
<path transform="translate(603,622)" d="m0 0 1 2-2 5-1 8 3 10v12l-1 7 1 18v28h-2l-5-13-2-7-1-8v-32l4-20 3-9z" fill="#D456A3"/>
<path transform="translate(1974,152)" d="m0 0 4 4 3 6 2 14 1 8v21l-2 12-3 8-3 7-8 11-6 5-5 5-14 8-1-2 1-2h2v-2l6-4h2v-2h2l1-3 7-4 4-9h3l3-10 3-7 1-12v-24l3 1-3-9-2-11z" fill="#EB93C2"/>
<path transform="translate(1958,900)" d="m0 0 15 1 12 4h7l9-3-5 5-9 3h-10l-11-1-10 3-3 5v10l2 21v6l-5-1-3-23-1-9v-13l3-4h3v-2z" fill="#F6CCDC"/>
<path transform="translate(5,916)" d="m0 0h2l5 5 6 4 4 3 12-3h15l9 3 7 1 8 6 3 1v2h2l5 5 3 5v6h-7l-4-10-10-5-9-4-6-1-26-1-7-6-7-4-5-5z" fill="#F5CBDB"/>
<path transform="translate(1741,583)" d="m0 0h1v20l2 13 1 9 2 5v17l-3 7h2v8l-3 9-3 23h-1l-1-53v-40l2-15z" fill="#EC93C3"/>
<path transform="translate(230,106)" d="m0 0 12 1 11 4 6 4 14 4 7 1 49 1 11 2 9 2v1h-8l-16-2h-20l-16 2h-17l-6-3-2-3-17-8-4-1-8 1-7 1-4-2-4-1-9 2-15 3-8 4-3-1 3-2h3v-2l19-5 10-2z" fill="#EB93C3"/>
<path transform="translate(411,306)" d="m0 0h2v21l1 3v3l1 11-1 23v36l1 9 1 13 2 10-1 2h-2l-3-10-3-26v-48l1-44z" fill="#D559A5"/>
<path transform="translate(683,2)" d="m0 0 5 1 6 8 7 12v8h2v2l4 1 1 5-4 2 1 7 3 3-1 2-4-1-2-2-2-8v-6l-4-1v-2l-4-1-5-8v-2l-4-2v-3l-2-1-1-5h3v-3h3v-2l-4-1v-2z" fill="#F6CCDC"/>
<path transform="translate(678,532)" d="m0 0 7 3 9 8 9 12 2 5-4-2-9-10-13-5-10-1-7 2-6 1h-7l-5 4-11 3-11 1-13-2v-1l21-3 25-7 11-5 8-1z" fill="#F5C8DA"/>
<path transform="translate(1787,421)" d="m0 0 2 3 1 7v20l-4 16-8 14-22 22-7 6h-2l-1 3-8 6-8 11-2 19-2 15-3 23-5 15-3 10-2 3h-2l3-11 6-19 2-14 2-27 2-11 4-11 7-7 16-12 10-9 10-10 6-8 5-11 4-15v-15z" fill="#F1A9CD"/>
<path transform="translate(1112,168)" d="m0 0h1v9l-1 7h-2l-2 11-5 22-2 9-6 52-4 19v47h-1l-1-8-1-33 2-38 3-18 5-16 8-42 5-16z" fill="#F4B6D3"/>
<path transform="translate(1448,281)" d="m0 0h1l-1 9-4 10-7 12-11 14-13 13-13 9-2-1 4-5 10-10 4-10 4-4 4-5 4-3h2l1-2 4-1v-3h2l1-5 8-12z" fill="#D455A2"/>
<path transform="translate(1267,880)" d="m0 0 6 2 11 8-2 2-10-1-9 6-5 3-5 2-3 9h-2l1 9v34h-1l-1-32-3-15v-8h8l3-5 1-8z" fill="#F4C4D8"/>
<path transform="translate(1008,545)" d="m0 0h20l14 2 17 6 5 2v1l-9-1-10-3-18-1-25 1-20 2-13 5-3 2-3-1 3-1v-2l15-7 17-4z" fill="#EB93C2"/>
<path transform="translate(165,64)" d="m0 0h2v2l-14 7-9 3-10 4-13 5-11 5-9 3-10 4-11 5-16 6-5 3-8 2 5-5 23-11 19-8 17-6 8-3 9-3 13-5 15-7z" fill="#EC95C4"/>
<path transform="translate(503,536)" d="m0 0 6 1 21 9 8 3 19 3 37 1v1l-23 4-11 1-25-5-13-4-2-4-6-2-9-5-2-1z" fill="#F5C9DB"/>
<path transform="translate(1102,79)" d="m0 0h7l7 3 1 2v19l-1 3h-4v-2h-2v-2l-6-2-5-12 1-7z" fill="#FBF4F5"/>
<path transform="translate(1086,88)" d="m0 0 6 1-1 2-8 1-10 5h-3l-1 3-4 3h-3l-1 4-7 6-6 8-5-1-4-2-8-8 12-3 11-3 3-3 8-5 7-2 10-5z" fill="#F4C3D8"/>
<path transform="translate(1633,300)" d="m0 0 4 1 12 5 16 6 12 5v2l9 2 24 9 9 5-2 1-30-9-19-7-20-9-8-5v-2l-4-1z" fill="#F2B0D0"/>
<path transform="translate(202,944)" d="m0 0 13 1 5 2v3h2l-1 4h-40l-1-5 2-2 9-2z" fill="#EC93C3"/>
<path transform="translate(1593,293)" d="m0 0h21l15 3 2 1v2l-32-1-31 1-23 1h-10l-12 1 4-2 20-3 29-1z" fill="#EEA0C8"/>
<path transform="translate(585,753)" d="m0 0 5 2 13 11 7 11 5 12 4 18 2 20-6 8-1-2 1-10-3-9 2-10-4-10-1-9-6-14-10-11-8-6z" fill="#D457A3"/>
<path transform="translate(2047,495)" d="m0 0h1v36h-6l-4-2-2-3-1-5-3 2 2-5z" fill="#D454A2"/>
<path transform="translate(490,761)" d="m0 0 4 4 3 1v2l-6 4-7 6-10 14-4-1-1-5 2-6 2-4-1-2 12-7z" fill="#F5CBDB"/>
<path transform="translate(1396,173)" d="m0 0 4 1 7 7 7 8 8 10 15 23 8 15 4 12v5l-2-1v-3h-2l-3-7v-5l-8-14-3-6-9-8-4-10-8-10-3-3v-2l-4-2-6-8z" fill="#D55AA5"/>
<path transform="translate(1056,518)" d="m0 0 17 8 17 4 9 2h7l8 3 8 2 23 1 15-1-2 2-31 2-14-3-9-3-10-1-2 1h-9l-11-3-1-4-10-2-5-6z" fill="#F2B0D0"/>
<path transform="translate(710,820)" d="m0 0h8l17 7 13 8 10 8 7 6 10 13 10 18 8 21 1 8-2-3-8-20-8-17-7-11-4-4-7-8-5-3-4-4-5-3-16-8-18-7z" fill="#D65DA6"/>
<path transform="translate(742)" d="m0 0h16l-5 6-3 5-6 4-4 4-6 3-3-1 2-12z" fill="#F3B4D2"/>
<path transform="translate(329,78)" d="m0 0 5 3 9 6 8 4 8 6 10 7 6 4 10 8 3 3-6-2-19-11-13-7-7-6-9-7-5-6z" fill="#F5C5D9"/>
<path transform="translate(1260,674)" d="m0 0 5 2 14 14 8 13 4 5 12 24 1 7 10 19-1 3-15-29-6-12v-3h-2l-5-10-9-13-3-5-8-10z" fill="#F5C8DA"/>
<path transform="translate(1044,511)" d="m0 0 11 6 6 8 10 3 1 3 11 3h9l5-1 15 3v1l-13 2h-15l-8-2-10-4-7-6-8-6v-2h-2l-3-4v-2h-2z" fill="#F5C9DA"/>
<path transform="translate(2045,399)" d="m0 0 3 1v8l-12 19-10 17-13 20-1-2 11-19 4-6 1-9 4-6 5-7h2v-6l5-9z" fill="#D455A2"/>
<path transform="translate(548,745)" d="m0 0h8l-3 2-25 6-1 2h5l-4 2-20 7-11 4-1-3 14-9 19-7z" fill="#EDADCD"/>
<path transform="translate(1921,7)" d="m0 0 5 2v2l4 2 7 6 7 8 3 2v2l4 2 7 7 7 8 11 10 11 9 3 2v2l4 2 1 3 5 2-2 1-11-7-5-5-12-11-5-4-28-28v-2h-2v-2l-4-2-6-5z" fill="#F3B5D2"/>
<path transform="translate(310,114)" d="m0 0h18l11 3 8 7-3 1v-2l-11-3-12-2-21 2h-17v-2l15-3z" fill="#F5CBDB"/>
<path transform="translate(1929,659)" d="m0 0h9l13 2v2l5 2 8 5 5 5 10 8 8 5 3 2 9 3 11 7 2 3-6-2-15-8-10-5-19-14-9-7-6-4-3-1-13-1-4 1v-2z" fill="#F1ABCE"/>
<path transform="translate(2042,10)" d="m0 0 1 2-4 9-7 12h-2l-3 9-11 20-8 11-2 1 2-9 3-6h2l2-5 10-16 8-13 4-8z" fill="#EFA2CA"/>
<path transform="translate(51,919)" d="m0 0 10 1 11 4v2h2v2l4 1 4 3v3l4 2 4 4 6 11v2h-5l-3-9v-3l-4-2-9-9-9-4-21-5 4-2z" fill="#EC93C3"/>
<path transform="translate(1944,899)" d="m0 0h11v1l-9 1-4 10v12l3 23v8h-2l-4-18-2-16v-9l2-9z" fill="#DAA0C1"/>
<path transform="translate(853,316)" d="m0 0h14l18 2 16 3 3 1v2l3 1-1 1 14 8 7 6 5 8-1 3-5-4-7-8-9-8-16-8-6-2h-7v-2h-8l-20-2z" fill="#DE9DC1"/>
<path transform="translate(2047,609)" d="m0 0h1v26l-9 1-4-2 1-5 10-19z" fill="#FAF0F3"/>
<path transform="translate(1796,524)" d="m0 0 19 1 13 4 8 5v2h3v2h3v2l5 2-1 3-12-9-7-3-13-4-11-1-15 4-8 2v-2l8-5 5-2z" fill="#F3C2D7"/>
<path transform="translate(832,773)" d="m0 0 2 3-5 15-3 10-9 16-10 9-4 2 2-4 8-9 12-25 5-14z" fill="#FAEFF2"/>
<path transform="translate(2023,882)" d="m0 0v3l-7 7h-3v3l-11 6-6 4-4 1h-7l-12-4-16-2v-1h13l20 2 8-3 16-8z" fill="#F0ACCE"/>
<path transform="translate(1785,467)" d="m0 0 1 3-5 10-6 8-8 7-10 9-10 10-6 4-3 3h-2l-2 6-3 5-1 12-2 4v-10l1-9 8-11 7-6 8-7 12-11 13-13z" fill="#F6CCDC"/>
<path transform="translate(925,336)" d="m0 0 4 2 7 7 6 9 2 16 3 10v6h-1l-5-17-7-13-3-6-2-6-3-4z" fill="#F3B4D2"/>
<path transform="translate(995,203)" d="m0 0 2 1-2 12-5 10-6 8-3 1-2 5-11 10-4 2 2-4 9-9 10-14 6-12z" fill="#FAEFF2"/>
<path transform="translate(688,90)" d="m0 0 3 3 9 11 3 4 4 2-1 6-5-2-15-10 2-10z" fill="#F2B1D0"/>
<path transform="translate(1777,385)" d="m0 0 3 2 1 5 3 1 3 11 2 4 3 3v15l-1 5h-2l-3-14-4-15-3-11z" fill="#F5C6D9"/>
<path transform="translate(1454,18)" d="m0 0 5 2 1 5-1 3-1 19-3-2-5-17 1-6z" fill="#FBF1F3"/>
<path transform="translate(466,934)" d="m0 0 2 4v2l7 1 7 6 1 7h-13l-2-10-2-5z" fill="#EB91C2"/>
<path transform="translate(1724,543)" d="m0 0h1v30l-3 17-4 11-3 10-2 3h-2l3-11 6-19 2-14z" fill="#F1AACD"/>
<path transform="translate(1275,194)" d="m0 0h2l-2 4-9 9-6 10-6 7h-2l-2 4-3 1v2l-6 3 2-4 8-10 12-14z" fill="#D458A4"/>
<path transform="translate(204)" d="m0 0 2 2 2 12v12l-4 8-8 11-4 3h-2v2l-9 7h-3v2h-3v2l-5 3-3-1 3-1 1-2 8-6 10-7 6-4 7-11 3-8z" fill="#F0A5CB"/>
<path transform="translate(1633,300)" d="m0 0 4 1 12 5 16 6 12 5-4 1-14-2-16-8-3-2v-2l-4-1z" fill="#F4C3D8"/>
<path transform="translate(651,541)" d="m0 0 3 1-5 3-5 4-11 3-11 1-13-2v-1l21-3z" fill="#F4C4D8"/>
<path transform="translate(1593,293)" d="m0 0h21l15 3 2 2-7-1h-50l2-2z" fill="#F4B6D3"/>
<path transform="translate(1298,935)" d="m0 0 7 4 7 8 4 5v2h-13l-3-14v-3h-2z" fill="#F4C4D8"/>
<path transform="translate(1839,374)" d="m0 0 1 4-1 5-1 4h-2v7l-1 1v8l-1 6 1 4-3 1v6l-2-3v-14l4-19 3-9z" fill="#D558A4"/>
<path transform="translate(317,117)" d="m0 0h7l15 4 5 2-4 1-11-2-49-1-6-1v-1h26z" fill="#F4B6D3"/>
<path transform="translate(1501,905)" d="m0 0 7 6 3 4 4 16 3 21v2l-3-1-5-28-6-13-3-4z" fill="#F5CADB"/>
<path transform="translate(758)" d="m0 0h6l-2 5-10 16-4-3 3-10 3-5z" fill="#EC93C3"/>
<path transform="translate(1385,387)" d="m0 0 3 1 2 10 1 10v39h-1v-18h-2l-1-13v-11l-1-11z" fill="#D455A3"/>
<path transform="translate(453,866)" d="m0 0h1l4 21 3 12 4 22v7h-1l-4-23-4-9-2-4-2-13z" fill="#EFA4CB"/>
<path transform="translate(1599,291)" d="m0 0 20 1 7 2v1l-12-1h-21l-19 2h-27v-1l34-3z" fill="#F6CCDC"/>
<path transform="translate(1933,20)" d="m0 0h2v2h2l7 8 18 18 3 2v2l4 2 9 9 9 7-1 2-8-6-12-11-7-7-8-7-1-3-4-2-7-8-6-7z" fill="#F6CCDC"/>
<path transform="translate(99,183)" d="m0 0 4 1-3 2-1 1 2-1h6l-3 2-10 3-5 1v2l-7 5-3-1-5 3-1-3 14-9 9-4h3z" fill="#F5CBDB"/>
<path transform="translate(224,105)" d="m0 0h20l9 4 7 5 6 2-3 1-7-3-7-4-7-2-12-1-14 2-16 4-4-1 11-4z" fill="#F4B6D3"/>
<path transform="translate(1787,421)" d="m0 0 2 3 1 7v20l-4 16-8 14-18 18-2-1 15-15 6-8 5-11 4-15v-15z" fill="#F0A7CC"/>
<path transform="translate(1977,142)" d="m0 0 3 4 4 18 1 12-1 7-2-2-1-13-2-8-4-8 1-5z" fill="#D6A4C1"/>
<path transform="translate(1482,505)" d="m0 0 5 1 15 8 15 9 17 7 14 4-4 1-16-3-2-1v-2l-9-3-10-6-17-10-8-4z" fill="#D556A3"/>
<path transform="translate(5,915)" d="m0 0 6 1 6 5 10 1h5l2-2h5l-5 4-2 3-10 2-8-6-7-5v-2z" fill="#F4B6D3"/>
<path transform="translate(57,218)" d="m0 0 2 1-1 9-2 11-7 17-2 3 1-7 4-10 1-10 3-8-10 3 5-6z" fill="#F4C3D8"/>
<path transform="translate(487,769)" d="m0 0 4 1-1 3-6 5-9 12-1-3h-2l3-9 3-3 3-1 1-2h3v-2z" fill="#F2DDE5"/>
<path transform="translate(202,505)" d="m0 0h15l23 1 6 2v1l-16 1h-33v-1l22-1-3-1-14-1z" fill="#F5C8DA"/>
<path transform="translate(1008,545)" d="m0 0h20l14 2 8 3-4 1-19-3h-28l-12 3-8 1 2-2 17-4z" fill="#F4B6D3"/>
<path transform="translate(548,745)" d="m0 0h8l-3 2-32 8-15 6-4 1 4-4 14-6 14-4z" fill="#DC66AC"/>
<path transform="translate(414,261)" d="m0 0h1v34l-2 9h-2v-22l1-12z" fill="#D659A5"/>
<path transform="translate(1593,215)" d="m0 0 5 4 9 11 7 7 8 6v2l-5-2-9-6-10-11-5-9z" fill="#FAEFF2"/>
<path transform="translate(941,352)" d="m0 0 4 4 2 4 1 15 2 7-1 7-2-1-2-11-3-14z" fill="#F5CBDB"/>
<path transform="translate(899)" d="m0 0h35l-3 3-27 1-6-2z" fill="#D454A2"/>
<path transform="translate(1929,659)" d="m0 0h9l13 2v2l5 2 8 5 5 7h-3l-10-8-9-6-3-1-13-1-4 1v-2z" fill="#EFA4CA"/>
<path transform="translate(335,83)" d="m0 0 5 2 11 6 16 12h-3l-7-3-10-6-12-9z" fill="#F1AACD"/>
<path transform="translate(1105,532)" d="m0 0 17 5 23 1 15-1-2 2-31 2-14-3-9-3-4-2z" fill="#F1ADCE"/>
<path transform="translate(1433,220)" d="m0 0h3l9 17 4 12v5l-2-1v-3h-2l-3-7v-5l-8-14z" fill="#D560A7"/>
<path transform="translate(710,820)" d="m0 0h8l17 7 10 6-1 3-16-8-18-7z" fill="#D558A4"/>
<path transform="translate(557,744)" d="m0 0 3 1-3 2 2 2-18 4-7 2h-7l1-3 25-6z" fill="#F2BDD5"/>
<path transform="translate(1292,718)" d="m0 0 5 3 6 11 1 7 10 19-1 3-15-29-6-12z" fill="#EFAACD"/>
<path transform="translate(1017,143)" d="m0 0 3 1 3 12 4 9v2l-4-1-3-4-3-9-2-1-1-4z" fill="#D557A3"/>
<path transform="translate(808,630)" d="m0 0 9 2 16 8 11 7 3 3-1 2-10-7-10-6-9-3-6-1z" fill="#D558A4"/>
<path transform="translate(1938,920)" d="m0 0 2 2 3 10 2 17v5h-2l-4-18-1-10z" fill="#EB93C2"/>
<path transform="translate(1871,342)" d="m0 0h11l21 2v1h-21l-2 1h-13l-5 2-4-1 8-4z" fill="#EE9FC8"/>
<path transform="translate(541,84)" d="m0 0v3l-9 10-8 8-7 4 2-4 11-11 7-8z" fill="#F5C8DA"/>
<path transform="translate(1096,166)" d="m0 0 1 4-3 15-6 18h-2v-5l2-7 6-19z" fill="#F2BAD3"/>
<path transform="translate(853,316)" d="m0 0h14l18 2 16 3 3 1v2l3 1-7-1-12-3h-7v-2h-8l-20-2z" fill="#F0A5CB"/>
<path transform="translate(1083,362)" d="m0 0 5 2 3 6 5 4v2l4 2 2 5-1 4-9-10-6-10v-2h-2z" fill="#F3B5D2"/>
<path transform="translate(669)" d="m0 0h18l2 4-6-1-7 3h-3l-1 4-3-7z" fill="#EC93C3"/>
<path transform="translate(1802,526)" d="m0 0h8l16 4 6 1 4 3v2h3v2h3v2l5 2-1 3-12-9-7-3-13-4-11-1-3-1z" fill="#EFB0CF"/>
<path transform="translate(503,536)" d="m0 0 6 1 21 9v1h-10l-11-6-6-3z" fill="#F2B0D0"/>
<path transform="translate(1918,658)" d="m0 0 6 1v2l3 1-4 4-8-1-3-4z" fill="#F4C2D8"/>
<path transform="translate(730,635)" d="m0 0 9 3 7 3h12l-1 2-11 2-10-4-6-4z" fill="#FAEDF1"/>
<path transform="translate(699,618)" d="m0 0 5 1 16 10 10 7v2l-6-2-14-9v-2l-5-2-6-4z" fill="#D65DA6"/>
<path transform="translate(52,544)" d="m0 0 7 6 9 8 8 10 1 3h2l1 6-4-5-12-13-7-8-5-5z" fill="#EB93C2"/>
<path transform="translate(19,535)" d="m0 0 8 1 4 2 5 2v1h-13l-9 1 3-5z" fill="#E994C2"/>
<path transform="translate(1473)" d="m0 0h4l-2 4-11 7-7 3 2-4 6-5z" fill="#FAEEF1"/>
<path transform="translate(1946,900)" d="m0 0 4 1-3 3-2 9-1 10h-3v-12l4-10z" fill="#F6CCDC"/>
<path transform="translate(685,817)" d="m0 0h16l4 2-4 2-25-1 2-2z" fill="#D75BA6"/>
<path transform="translate(1297,721)" d="m0 0 4 4 7 14 3 9-1 4-8-16-1-6-4-7z" fill="#F6CCDC"/>
<path transform="translate(544,551)" d="m0 0 13 1 21 1v1l-14 2-12-1-8-3z" fill="#F1ABCE"/>
<path transform="translate(1728,531)" d="m0 0h1l-1 17-2 15h-1v-28l1-3z" fill="#F3B2D1"/>
<path transform="translate(904,325)" d="m0 0 7 1 12 6 4 4-2 3-10-7-11-6z" fill="#F5CADB"/>
<path transform="translate(1158,2)" d="m0 0h9l15 3 1 2-12 1-5-2-6-1z" fill="#D559A4"/>
<path transform="translate(1094,158)" d="m0 0 3 3-1 8-3 8h-1l-2-11 1-7 2 1 1 1z" fill="#DE66AE"/>
<path transform="translate(600,933)" d="m0 0h1v8l-2 13h-5l2-11z" fill="#FAEDF1"/>
<path transform="translate(1839,374)" d="m0 0 1 4-1 5-1 4h-2v7l-4 2 1-9 4-12z" fill="#D659A5"/>
<path transform="translate(948,688)" d="m0 0h1l2 7 3 7v3l-9-1-4-2-2-2h6l4 1-1-5z" fill="#F6CCDC"/>
<path transform="translate(1412,690)" d="m0 0 2 1-1 3-5 3-6 2h-6l4-4 8-4z" fill="#FAECF1"/>
<path transform="translate(1112,168)" d="m0 0h1v9l-1 7h-2l-2 11-2 4-1-4 4-16z" fill="#F2B1D0"/>
<path transform="translate(220,107)" d="m0 0m-4 1h4v2l-9 2-15 3-8 4-3-1 3-2h3v-2l19-5z" fill="#ED97C5"/>
<path transform="translate(1724,543)" d="m0 0h1v30h-2l-1 11h-1l1-14z" fill="#ED98C5"/>
<path transform="translate(1204,427)" d="m0 0 1 4-4 19-3 10h-1v-8l6-23z" fill="#F7E9EE"/>
<path transform="translate(191,46)" d="m0 0 2 1-3 1v2l-9 7h-3v2h-3v2l-5 3-3-1 3-1 1-2 8-6 10-7z" fill="#ED99C5"/>
<path transform="translate(1887,5)" d="m0 0 4 4 7 11 6 10v3h2l-1 2-3-3-8-13-7-12z" fill="#E796C2"/>
<path transform="translate(2047,854)" d="m0 0h1v14h-5l-1-1v-5l3-6h2z" fill="#FCF5F6"/>
<path transform="translate(2042,10)" d="m0 0 1 2-4 9-7 12-1-3 4-10z" fill="#F0A8CC"/>
<path transform="translate(1364)" d="m0 0h6l1 1v12l-4-1-1-8 1-3z" fill="#ECB2CF"/>
<path transform="translate(1885)" d="m0 0h5l6 10-1 4h-2l-8-12z" fill="#F5C2D8"/>
<path transform="translate(1790,433)" d="m0 0h1l1 7v13l-3 9-2 2 1-8 1-5z" fill="#F6CCDC"/>
<path transform="translate(1098,227)" d="m0 0 1 4-6 21-2 13h-1v-9l3-16z" fill="#F6CCDC"/>
<path transform="translate(1097,359)" d="m0 0 8 5 10 1-1 4h-7l-9-6z" fill="#F0A6CB"/>
<path transform="translate(784,300)" d="m0 0h1l1 20 8 7 9 3v1h-9l-6-7-4-1z" fill="#F4C7D9"/>
<path transform="translate(1101,138)" d="m0 0h1v19l-2 5-3 3 1-9z" fill="#F3BAD4"/>
<path transform="translate(745,834)" d="m0 0 4 2 9 7 7 6 2 4-4-2-8-7-10-8z" fill="#D562A8"/>
<path transform="translate(1070,335)" d="m0 0 6 2 2 3-1 7-4-1-3-10z" fill="#FAF1F3"/>
<path transform="translate(112,180)" d="m0 0h19l-3 2-24 2 1-2z" fill="#F1ACCE"/>
<path transform="translate(367,104)" d="m0 0 6 2 12 10 3 3-6-2-10-6-1-4-4-2z" fill="#F0ADCE"/>
<path transform="translate(1438,184)" d="m0 0 7 6 13 13h-3l-8-6v-2h-2l-4-6-3-3z" fill="#F2D2DF"/>
<path transform="translate(921,692)" d="m0 0h7l4 3 6 2v3l-6-2-2-1v-2h-13z" fill="#F0B3D0"/>
<path transform="translate(733,10)" d="m0 0 2 3 3 3 4-1 1 2-9 5-3-1z" fill="#F6CCDC"/>
<path transform="translate(1328,92)" d="m0 0 5 1 6 5-4 2-7-2-1-4z" fill="#F5C5D9"/>
<path transform="translate(891,4)" d="m0 0 6 1 13 5v2l-10-1-9-5z" fill="#FAEDF1"/>
<path transform="translate(945,482)" d="m0 0h1l1 13-3 5-3 2 2-10z" fill="#F4C1D7"/>
<path transform="translate(698,103)" d="m0 0 5 5 4 2-1 6-5-2-2-2z" fill="#EC93C3"/>
<path transform="translate(1235,415)" d="m0 0 1 4v6l-2 2-1 18h-1v-22l2-7z" fill="#D864AA"/>
<path transform="translate(99,183)" d="m0 0 4 1-3 2-1 1 2-1h6l-3 2-10 3-4 1v-2l6-5h3z" fill="#EC9EC7"/>
<path transform="translate(1111,169)" d="m0 0 1 4-5 16-1 6h-1l1-13 2-9h2z" fill="#F6CCDC"/>
<path transform="translate(1963,406)" d="m0 0 6 3h7l-2 4-4 2-3-1-4-6z" fill="#F3C5D8"/>
<path transform="translate(1275,194)" d="m0 0h2l-2 4-9 9-6 4 2-4z" fill="#D75BA6"/>
<path transform="translate(34,920)" d="m0 0h5l-4 3-3 2h-6l-6 1-3-4h15z" fill="#EC93C3"/>
<path transform="translate(1045,286)" d="m0 0 5 2 6 9v3h2v6l-1-4h-2l-5-10-5-5z" fill="#EFB2D0"/>
<path transform="translate(318,496)" d="m0 0h9l-3 2-14 6v-3l4-2 1-2z" fill="#F2B1D0"/>
<path transform="translate(1443,239)" d="m0 0 3 1 3 9v5l-2-1v-3h-2l-3-7z" fill="#D558A4"/>
<path transform="translate(1086,88)" d="m0 0 6 1-1 2-8 1-10 5h-2l1-3 10-5z" fill="#EEA0C9"/>
<path transform="translate(794,947)" d="m0 0 4 1 2 6h-8v-5z" fill="#D454A2"/>
<path transform="translate(557,744)" d="m0 0 3 1-3 2 2 2-13 3-4-1 7-4z" fill="#F1CBDC"/>
<path transform="translate(23,196)" d="m0 0h21l-2 2h-7l-1 2v-2l-11 1-2-2z" fill="#D556A3"/>
<path transform="translate(1968,127)" d="m0 0 4 2 8 13 1 4h-2l-7-12-4-5z" fill="#F4B8D4"/>
<path transform="translate(791,35)" d="m0 0 1 2-2 6-2 5-3 3-1-5 6-10z" fill="#F3E0E7"/>
<path transform="translate(2039,856)" d="m0 0 1 4-4 8h-2l-2 5-5 5 2-5 8-13z" fill="#F0AECE"/>
<path transform="translate(828,638)" d="m0 0 5 2 11 7 3 3-1 2-10-7-8-5z" fill="#D660A7"/>
<path transform="translate(1408,506)" d="m0 0h23l-3 2-6 1h-10z" fill="#D556A3"/>
<path transform="translate(414,261)" d="m0 0h1v19l-3 1v-11z" fill="#D65CA6"/>
<path transform="translate(723,28)" d="m0 0 3 3-4 5-4 1-1-3 4-5z" fill="#F6CCDC"/>
<path transform="translate(1921,7)" d="m0 0 5 2v2l4 2 6 5-1 2-4-2-6-5z" fill="#F0A5CB"/>
<path transform="translate(2e3 692)" d="m0 0 10 5 6 5h-3l-13-6z" fill="#F3BDD5"/>
<path transform="translate(1757,499)" d="m0 0 2 1-10 9h-2l-1 3-5 2 1-4 11-8z" fill="#F2ADCF"/>
<path transform="translate(1093,373)" d="m0 0 3 1v2l4 2 2 5-1 4-4-5-2-4z" fill="#E98DC0"/>
<path transform="translate(814,325)" d="m0 0 3 1-3 2-2 5-6 2 1-5z" fill="#EB95C3"/>
<path transform="translate(190,947)" d="m0 0 5 1 1 3-5 1h-8l2-3z" fill="#F4B6D3"/>
<path transform="translate(701,23)" d="m0 0 4 4 3 7-5-1v-2h-2l-1-5z" fill="#D9A1C1"/>
<path transform="translate(977,552)" d="m0 0 3 1-4 3-10 5-3-1 3-1v-2z" fill="#EC9CC6"/>
<path transform="translate(57,197)" d="m0 0 5 1 1 2-1 4 7-4 2 1-9 7-3-1 1-8z" fill="#E99DC5"/>
<path transform="translate(796,31)" d="m0 0h2l-2 5-5 7h-2l2-9z" fill="#FAEEF1"/>
<path transform="translate(1217,124)" d="m0 0 2 1-8 11-6 7v-3z" fill="#D759A5"/>
<path transform="translate(1810,525)" d="m0 0 10 1 9 4-3 1-16-4z" fill="#F6CCDC"/>
<path transform="translate(261,14)" d="m0 0 8 6 3 2 3 5 3 3-1 2-6-6v-3l-4-1-6-6z" fill="#EFA2C9"/>
<path transform="translate(1364,1)" d="m0 0h3v8l3 9h-2l-4-9z" fill="#D75AA6"/>
<path transform="translate(435,884)" d="m0 0 4 2v2h2l2 5-1 2h-2l-5-8z" fill="#FAEDF1"/>
<path transform="translate(242,480)" d="m0 0 2 1-5 4-1 2h-2v2l-3 1h-7l3-2 4-2h4l2-4z" fill="#F3BCD5"/>
<path transform="translate(891,320)" d="m0 0h7l6 2v2l3 1-7-1-9-2z" fill="#F2B8D3"/>
<path transform="translate(1155)" d="m0 0h18v3l-12-1-6-1z" fill="#F4E0E7"/>
<path transform="translate(787,891)" d="m0 0 3 1 4 12v5l-2-3-5-13z" fill="#D562A8"/>
<path transform="translate(1727,339)" d="m0 0 8 2 6 3v2l4 1v2l-5-2-8-4v-2l-5-1z" fill="#ECAECD"/>
<path transform="translate(5,915)" d="m0 0 6 1 6 5-1 2-5-2-4-3v-2z" fill="#EFA3CA"/>
<path transform="translate(2023,445)" d="m0 0 1 2-11 17-1-2 9-15z" fill="#D557A4"/>
<path transform="translate(1347,158)" d="m0 0h21v1l-12 1-8 1-3-2z" fill="#D556A3"/>
<path transform="translate(1716,601)" d="m0 0h1l-1 8-3 5h-2l3-11h2z" fill="#F3BAD4"/>
<path transform="translate(1292,181)" d="m0 0 3 1-15 11v-3z" fill="#D660A7"/>
<path transform="translate(683,2)" d="m0 0 5 1 2 3h-2v2h-3v-2l-4-1v-2z" fill="#F4B6D3"/>
<path transform="translate(832,773)" d="m0 0 2 3-3 8-4 2 3-10z" fill="#F9ECF0"/>
<path transform="translate(1314,761)" d="m0 0h2l6 8 5 7-4-2-8-10z" fill="#F0A8CC"/>
<path transform="translate(1784,467)" d="m0 0 1 2-8 13-3 1 2-4 5-8z" fill="#F1ABCE"/>
<path transform="translate(1092,346)" d="m0 0 3 1 1 9 1 3-4-2-1-4z" fill="#EFA1C9"/>
<path transform="translate(478,945)" d="m0 0 4 2 1 7-5-3-1-3z" fill="#F2B0D0"/>
<path transform="translate(2026,929)" d="m0 0 2 1-8 11-4 4 2-5z" fill="#EFA1C9"/>
<path transform="translate(2023,882)" d="m0 0v3l-7 7h-3v2l-4-1 11-8z" fill="#EFA3CA"/>
<path transform="translate(775,636)" d="m0 0h3v2h-4v2l-7 2-2-1 1-2z" fill="#D55EA6"/>
<path transform="translate(603,622)" d="m0 0 1 2-2 5-1 6-3 1 1-7 2-6z" fill="#D65BA6"/>
<path transform="translate(930,525)" d="m0 0 1 3-5 9-4 1 3-6h2l2-5z" fill="#F4C1D7"/>
<path transform="translate(1846,255)" d="m0 0 7 1 5 5-2 1-10-6z" fill="#ED9AC6"/>
<path transform="translate(1085,203)" d="m0 0h1v7l-3 7-3 1 2-6z" fill="#F1B9D3"/>
<path transform="translate(343,88)" d="m0 0 5 1 9 7h-3l-10-6z" fill="#EC93C3"/>
<path transform="translate(207,8)" d="m0 0 2 1 1 7-1 11-2 2z" fill="#F6CCDC"/>
<path transform="translate(2044,750)" d="m0 0 4 3v9l-2-1-2-7z" fill="#F1ACCE"/>
<path transform="translate(1048,551)" d="m0 0 8 1 8 3v1l-9-1-7-2z" fill="#ED99C5"/>
<path transform="translate(1897,20)" d="m0 0 3 3 4 7v3h2l-1 2-3-3-5-8z" fill="#DF9CC1"/>
<path transform="translate(596,19)" d="m0 0v3l-9 9v-3l3-5h2v-2z" fill="#D454A2"/>
<path transform="translate(1105,532)" d="m0 0 13 4v1l-11-1-7-2v-1z" fill="#EC93C3"/>
<path transform="translate(1204,427)" d="m0 0 1 4-2 11-3 1 2-11z" fill="#F9EDF0"/>
<path transform="translate(678,532)" d="m0 0 7 3 3 4-6-2-7-3z" fill="#EFACCD"/>
<path transform="translate(9,532)" d="m0 0 2 2-1 4-2 4-5-1 3-3h2z" fill="#F5CDDC"/>
<path transform="translate(66,507)" d="m0 0h8l-2 2-3 1h-10l4-2z" fill="#D556A3"/>
<path transform="translate(2046,328)" d="m0 0h2l-2 4-3 3-5 2 6-8z" fill="#E99DC5"/>
</svg>
